HIERARCHY
ROOT root
{
	OFFSET 0.000000 0.000000 0.000000
	CHANNELS 6 Xposition Yposition Zposition Zrotation Yrotation Xrotation
	JOINT lhip
	{
		OFFSET 0.058581 -0.082280 -0.017664
		CHANNELS 3 Zrotation Yrotation Xrotation
		JOINT lknee
		{
			OFFSET 0.043451 -0.386469 0.008037
			CHANNELS 3 Zrotation Yrotation Xrotation
			JOINT lankle
			{
				OFFSET -0.014790 -0.426874 -0.037428
				CHANNELS 3 Zrotation Yrotation Xrotation
				JOINT ltoe
				{
					OFFSET 0.041054 -0.060286 0.122042
					CHANNELS 3 Zrotation Yrotation Xrotation
					End Site
					{
						OFFSET 0.000000 0.000000 0.000000
					}
				}
			}
		}
	}
	JOINT rhip
	{
		OFFSET -0.060310 -0.090513 -0.013543
		CHANNELS 3 Zrotation Yrotation Xrotation
		JOINT rknee
		{
			OFFSET -0.043257 -0.383688 -0.004843
			CHANNELS 3 Zrotation Yrotation Xrotation
			JOINT rankle
			{
				OFFSET 0.019056 -0.420046 -0.034562
				CHANNELS 3 Zrotation Yrotation Xrotation
				JOINT rtoe
				{
					OFFSET -0.034840 -0.062106 0.130323
					CHANNELS 3 Zrotation Yrotation Xrotation
					End Site
					{
						OFFSET 0.000000 0.000000 0.000000
					}
				}
			}
		}
	}
	JOINT lowerback
	{
		OFFSET 0.004439 0.124404 -0.038385
		CHANNELS 3 Zrotation Yrotation Xrotation
		JOINT upperback
		{
			OFFSET 0.004488 0.137956 0.026820
			CHANNELS 3 Zrotation Yrotation Xrotation
			JOINT chest
			{
				OFFSET -0.002265 0.056032 0.002855
				CHANNELS 3 Zrotation Yrotation Xrotation
				JOINT lowerneck
				{
					OFFSET -0.013390 0.211636 -0.033468
					CHANNELS 3 Zrotation Yrotation Xrotation
					JOINT upperneck
					{
						OFFSET 0.010113 0.088937 0.050410
						CHANNELS 3 Zrotation Yrotation Xrotation
						End Site
						{
							OFFSET 0.000000 0.000000 0.000000
						}
					}
				}
				JOINT lclavicle
				{
					OFFSET 0.071702 0.114000 -0.018898
					CHANNELS 3 Zrotation Yrotation Xrotation
					JOINT lshoulder
					{
						OFFSET 0.122921 0.045205 -0.019046
						CHANNELS 3 Zrotation Yrotation Xrotation
						JOINT lelbow
						{
							OFFSET 0.255332 -0.015649 -0.022946
							CHANNELS 3 Zrotation Yrotation Xrotation
							JOINT lwrist
							{
								OFFSET 0.265709 0.012698 -0.007375
								CHANNELS 3 Zrotation Yrotation Xrotation
								End Site
								{
									OFFSET 0.000000 0.000000 0.000000
								}
							}
						}
					}
				}
				JOINT rclavicle
				{
					OFFSET -0.082954 0.112472 -0.023707
					CHANNELS 3 Zrotation Yrotation Xrotation
					JOINT rshoulder
					{
						OFFSET -0.113228 0.046853 -0.008472
						CHANNELS 3 Zrotation Yrotation Xrotation
						JOINT relbow
						{
							OFFSET -0.260127 -0.014369 -0.031269
							CHANNELS 3 Zrotation Yrotation Xrotation
							JOINT rwrist
							{
								OFFSET -0.269108 0.006794 -0.006027
								CHANNELS 3 Zrotation Yrotation Xrotation
								End Site
								{
									OFFSET 0.000000 0.000000 0.000000
								}
							}
						}
					}
				}
			}
		}
	}
}
MOTION
Frames: 5
Frame Time: 0.033333
0.460121 0.635524 0.596386 -30.274106 -5.128400 72.840158 9.102412 -9.677168 -35.876909 -2.622744 6.309457 117.543079 -11.422139 8.745578 -50.527354 0.000000 -0.000000 0.000000 -33.020938 -9.233077 -50.570200 1.540052 5.085611 106.617933 14.812374 3.025182 -37.223533 0.000000 -0.000000 0.000000 2.150595 2.444981 46.734288 5.279633 1.642441 -8.582032 4.493078 2.547019 -0.715997 -6.946457 4.188639 -26.142690 -3.275065 -6.499113 -9.262838 -1.251190 -14.306645 -19.073143 -12.073078 -24.608606 -24.859998 139.392481 -45.927018 -107.866584 12.243593 -26.913790 3.234127 21.992736 20.287960 -7.583820 44.594428 13.644450 -8.340667 -53.750493 36.374716 -64.567138 4.359500 17.444502 -34.996276 
0.460338 0.637004 0.591451 -30.470687 -5.172200 72.628443 9.494943 -9.258991 -36.350755 -2.925941 6.407838 118.393040 -11.691932 8.479242 -50.402836 0.000000 -0.000000 0.000000 -33.158524 -9.273378 -51.180473 1.674171 5.158942 107.271704 14.915503 3.341278 -37.167125 0.000000 -0.000000 0.000000 2.230368 2.527142 47.227179 5.267722 1.907469 -8.559595 4.556237 2.714278 -0.649907 -7.358360 4.451768 -26.411217 -3.322649 -6.446451 -9.599290 -0.797208 -14.613269 -19.545459 -11.692997 -24.255924 -25.070377 138.943910 -45.865203 -107.515936 12.544147 -26.941680 3.024270 21.863115 20.720435 -7.632914 44.203375 13.814943 -8.746587 -54.578951 36.407892 -65.338433 3.972693 17.153067 -35.168232 
0.460490 0.637933 0.587101 -30.441503 -5.432361 72.629233 9.676804 -9.240435 -36.971118 -3.056558 6.638130 119.033614 -11.835150 8.309636 -50.286304 0.000000 -0.000000 0.000000 -33.631137 -9.735843 -51.868310 2.004310 5.196996 107.826103 15.202363 3.565405 -36.791862 0.000000 -0.000000 0.000000 2.287170 2.666918 47.225951 5.265222 1.882599 -8.247003 4.579636 2.810255 -0.781531 -7.975719 4.533439 -26.383944 -3.097487 -6.566839 -10.451119 -0.457122 -15.024740 -19.936365 -10.979565 -23.666749 -25.359328 138.555016 -45.897091 -107.599012 12.624293 -26.811436 3.187025 21.737003 21.123355 -7.689507 43.963001 13.876504 -9.126747 -55.345641 36.221341 -66.311002 3.697089 16.907491 -34.657136 
0.460585 0.638744 0.585014 -30.390058 -5.667411 72.627359 9.593278 -9.218209 -37.325254 -3.158749 6.733139 119.314018 -11.858386 8.323939 -50.208437 0.000000 -0.000000 0.000000 -33.996580 -10.188562 -52.262531 2.270734 5.188355 108.072871 15.177814 3.713610 -36.594644 0.000000 -0.000000 0.000000 2.430795 2.613528 47.266432 5.209210 1.757202 -8.057877 4.585036 2.920183 -0.886471 -8.085154 4.350059 -26.262174 -2.886403 -6.416551 -11.380988 -0.042739 -15.374321 -20.228852 -10.489880 -22.807149 -25.626100 138.213553 -45.796980 -107.856480 12.716172 -26.757513 3.384280 21.484751 21.648515 -7.564366 44.016489 13.801694 -9.453802 -56.054819 35.987617 -67.499325 3.593826 16.422674 -34.157806 
0.460300 0.639567 0.585766 -30.423417 -5.872226 72.586607 9.412654 -9.066089 -37.202882 -3.209878 6.720506 119.057769 -11.765143 8.357176 -50.176269 0.000000 -0.000000 0.000000 -34.183623 -10.402822 -52.308086 2.308333 5.134592 107.962758 15.065076 3.844373 -36.461309 0.000000 -0.000000 0.000000 2.553007 2.539945 47.446579 5.142650 1.743802 -8.062093 4.612851 2.962459 -0.933450 -8.202813 4.474398 -26.383435 -2.883892 -6.189264 -11.957393 0.411669 -15.355321 -20.556986 -10.424906 -22.551127 -25.768259 137.817793 -45.810948 -107.326708 12.812960 -26.687210 2.965476 20.871572 21.861597 -7.831718 44.500271 13.890971 -9.179843 -55.962486 35.338761 -67.324134 3.420436 16.057826 -35.083242 
